<svg width="295" height="162" viewBox="0 0 295 162" fill="none" xmlns="http://www.w3.org/2000/svg">
<g clip-path="url(#clip0_789_363)">
<path d="M250.388 107.549H172.095C166.762 107.549 161.647 109.665 157.876 113.431C154.105 117.197 151.986 122.305 151.986 127.631V161.098H158.295V142.631C158.295 137.305 160.413 132.197 164.185 128.431C167.956 124.665 173.07 122.55 178.404 122.55H244.079C249.412 122.55 254.527 124.665 258.298 128.431C262.069 132.197 264.188 137.305 264.188 142.631V161.098H270.496V127.631C270.496 122.305 268.378 117.197 264.607 113.431C260.836 109.665 255.721 107.549 250.388 107.549Z" fill="#F2F2F2"/>
<path d="M228.364 112.949C239.687 112.949 248.867 111.64 248.867 110.024C248.867 108.409 239.687 107.099 228.364 107.099C217.041 107.099 207.861 108.409 207.861 110.024C207.861 111.64 217.041 112.949 228.364 112.949Z" fill="#E6E6E6"/>
<path d="M243.865 110.758H216.556C209.814 104.306 204.994 98.0879 208.853 92.9265C208.853 91.4429 209.444 90.02 210.494 88.9709C211.545 87.9218 212.969 87.3324 214.455 87.3324H245.965C247.451 87.3324 248.876 87.9218 249.926 88.9709C250.977 90.02 251.567 91.4429 251.567 92.9265C253.036 98.8076 250.412 104.752 243.865 110.758Z" fill="#F2F2F2"/>
<path d="M238.959 80.29C238.7 80.3019 238.444 80.2339 238.225 80.0954C238.005 79.9568 237.834 79.7543 237.734 79.5153C237.634 79.2764 237.61 79.0124 237.665 78.7593C237.72 78.5062 237.852 78.2762 238.043 78.1003L238.129 77.7562C238.118 77.7286 238.106 77.7011 238.095 77.6736C237.834 77.0579 237.396 76.5329 236.837 76.1646C236.279 75.7964 235.623 75.6012 234.954 75.6037C234.284 75.6062 233.63 75.8062 233.074 76.1786C232.518 76.551 232.085 77.0792 231.828 77.6969C230.803 80.1619 229.498 82.6312 229.177 85.2377C229.036 86.3898 229.095 87.5577 229.354 88.6894C226.946 83.4455 225.696 77.7459 225.688 71.9773C225.688 70.5297 225.768 69.0832 225.929 67.6446C226.063 66.4653 226.248 65.2943 226.484 64.1318C227.774 57.8238 230.544 51.9115 234.567 46.8803C236.514 45.8195 238.089 44.1881 239.078 42.2061C239.437 41.4936 239.691 40.7331 239.831 39.9481C239.611 39.9769 239.003 36.6366 239.168 36.4316C238.862 35.9678 238.315 35.7373 237.98 35.2847C236.318 33.0338 234.027 33.4268 232.832 36.4856C230.277 37.773 230.253 39.9081 231.82 41.9616C232.817 43.268 232.954 45.0358 233.829 46.4344C233.739 46.5495 233.645 46.661 233.555 46.7761C231.91 48.889 230.476 51.1578 229.274 53.5501C229.566 50.8701 229.217 48.159 228.255 45.6399C227.281 43.2921 225.454 41.3149 223.846 39.2853C221.914 36.8474 217.952 37.9114 217.611 41.0017C217.608 41.0317 217.605 41.0616 217.602 41.0915C217.84 41.2261 218.074 41.3689 218.303 41.5201C218.591 41.7119 218.813 41.9859 218.942 42.3063C219.071 42.6267 219.1 42.9785 219.025 43.3156C218.95 43.6527 218.775 43.9593 218.523 44.1954C218.271 44.4314 217.953 44.5859 217.611 44.6385L217.576 44.6439C217.661 45.5038 217.812 46.356 218.026 47.1931C215.963 55.1625 220.418 58.0651 226.779 58.1955C226.92 58.2674 227.056 58.3393 227.197 58.4077C225.989 61.826 225.231 65.3867 224.943 69.0002C224.78 71.132 224.789 73.2735 224.972 75.4038L224.961 75.3283C224.5 72.9595 223.235 70.8221 221.378 69.277C218.622 67.0154 214.727 66.1826 211.752 64.3647C211.436 64.162 211.069 64.0538 210.693 64.0529C210.317 64.052 209.949 64.1584 209.632 64.3595C209.315 64.5606 209.062 64.8481 208.903 65.188C208.745 65.528 208.686 65.9062 208.736 66.278C208.74 66.3045 208.744 66.331 208.748 66.3574C209.191 66.5378 209.623 66.7455 210.041 66.9794C210.279 67.1141 210.513 67.2569 210.742 67.408C211.03 67.5998 211.252 67.8739 211.381 68.1943C211.51 68.5147 211.539 68.8665 211.464 69.2035C211.389 69.5406 211.214 69.8473 210.962 70.0833C210.71 70.3194 210.392 70.4739 210.05 70.5265L210.015 70.5318C209.99 70.5354 209.969 70.539 209.943 70.5426C210.701 72.349 211.764 74.0116 213.087 75.4577C214.377 82.4147 219.919 83.0747 225.847 81.0488H225.85C226.501 83.8713 227.443 86.6187 228.662 89.2467H238.708C238.744 89.1352 238.776 89.0201 238.808 88.9087C237.879 88.9671 236.945 88.9115 236.029 88.7433C236.774 87.83 237.519 86.9096 238.265 85.9963C238.281 85.9792 238.297 85.9612 238.312 85.9424C238.69 85.475 239.071 85.0111 239.449 84.5437L239.45 84.5431C239.47 83.1104 239.305 81.6808 238.959 80.29Z" fill="#F2F2F2"/>
<path d="M159.361 110.687L162.964 107.262L151.452 91.7554L146.135 96.8093L159.361 110.687Z" fill="#FFB6B6"/>
<path d="M155.836 109.34L161.265 103.526L163.612 105.989L172.681 104.562C173.129 104.491 173.588 104.565 173.99 104.774C174.393 104.982 174.718 105.313 174.919 105.719C175.12 106.125 175.185 106.585 175.106 107.031C175.027 107.477 174.807 107.886 174.478 108.198L167.626 114.711L164.123 113.397L165.983 116.272L163.4 118.727L155.836 109.34Z" fill="#2F2E41"/>
<path d="M158.745 98.9996L153.789 105.75C149.593 103.518 136.204 94.6611 125.948 90.0217C119.32 87.0158 114.205 84.7298 114.205 84.7298C114.205 84.7298 113.516 85.7063 112.416 87.2408C108.392 92.8657 98.889 105.956 97.9833 105.47C96.8342 104.853 95.532 105.956 95.6942 108.215C95.8113 109.862 93.0221 111.063 91.499 111.599C90.9267 111.797 90.5347 111.905 90.5347 111.905C90.2734 112.071 90.012 112.238 89.7552 112.395C81.4144 117.485 71.6407 116.049 64.9266 110.595C62.5217 108.658 60.5604 106.229 59.1745 103.471C57.7886 100.713 57.0104 97.6905 56.8923 94.6071L56.293 80.6574L76.5704 79.7574L80.1797 86.6018L86.5829 81.3909L100.601 69.9836L105.72 65.8167C105.72 65.8167 105.585 65.7987 105.747 65.1867C106.389 64.8397 107.06 64.5505 107.752 64.3227C107.87 64.2822 107.987 64.2462 108.104 64.2147C114.705 62.2708 119.712 67.3287 119.712 67.3287C119.712 67.3287 150.332 88.0064 151.535 88.1999C152.739 88.3978 153.431 90.3277 153.575 90.7867C153.715 91.2187 155.632 93.6582 156.492 93.5997C159.178 93.4242 158.745 98.9996 158.745 98.9996Z" fill="#2F2E41"/>
<path d="M97.9564 57.2232C97.3913 57.4105 96.8746 57.72 96.4431 58.1297C96.0116 58.5394 95.6759 59.0392 95.46 59.5933L76.8662 59.4911L66.9752 45.8287L59.623 49.0793L71.5892 70.7306L97.7838 64.8949L97.7683 64.8403C98.375 65.0758 99.0295 65.1619 99.6766 65.0915C100.324 65.0211 100.944 64.7962 101.486 64.4358C102.028 64.0754 102.474 63.5901 102.789 63.0208C103.103 62.4516 103.275 61.8152 103.291 61.1654C103.307 60.5156 103.167 59.8715 102.881 59.2875C102.595 58.7035 102.173 58.1968 101.65 57.8101C101.126 57.4235 100.518 57.1683 99.8748 57.0662C99.232 56.964 98.574 57.0179 97.9564 57.2232Z" fill="#FFB6B6"/>
<path d="M63.5011 36.5188L63.115 36.5753C61.0983 36.8682 59.2765 37.9379 58.0397 39.5555C56.8029 41.1731 56.2495 43.21 56.4979 45.23C56.7966 47.6191 56.9704 49.7571 56.7089 50.1824C56.0652 51.2291 55.8191 52.1062 57.0819 52.2373C58.3447 52.3685 55.7128 51.5965 59.736 52.2682C63.7593 52.9399 63.0477 50.8051 66.3251 50.6642C69.6026 50.5233 71.814 51.3678 72.8463 49.5235C73.8786 47.6791 76.7573 47.6035 75.1762 45.7913C73.5952 43.9792 73.167 45.5443 71.8862 41.7017C71.8734 41.6632 71.8605 41.625 71.8476 41.5869C71.2694 39.9008 70.1177 38.4704 68.5928 37.5444C67.0679 36.6185 65.2662 36.2556 63.5011 36.5188Z" fill="#1985A1"/>
<path d="M52.6462 31.7488C52.168 32.2142 51.6592 32.6472 51.1231 33.0448C50.9654 33.1663 50.8077 33.2788 50.65 33.3823C46.0763 36.4737 41.5612 35.1507 38.042 31.9243C32.6031 26.9294 29.548 17.3761 32.3688 12.5252C38.6863 4.83035 46.8874 6.48179 51.8711 11.7107C56.7107 16.7821 58.5221 25.2239 52.6462 31.7488Z" fill="#F2F2F2"/>
<path d="M72.5014 38.1558C72.1139 37.9083 71.7263 37.6698 71.3298 37.4403C71.1541 37.2018 70.9738 36.9678 70.7891 36.7383L72.5014 38.1558Z" fill="#F2F2F2"/>
<path d="M61.4531 17.7442C67.4541 22.3029 74.1371 25.931 75.3968 30.9479C75.3968 30.9479 74.6422 23.0653 78.162 24.5594C84.0763 27.0698 82.0752 13.4171 80.4167 11.1846C77.6525 7.4638 68.3317 5.34961 68.3317 5.34961L61.7195 8.97441L61.4531 17.7442Z" fill="#2F2E41"/>
<path d="M89.0875 160.126C89.2103 160.483 89.4432 160.792 89.7528 161.008C90.0624 161.225 90.4327 161.338 90.8106 161.331L98.1936 161.142C98.5743 161.134 98.9423 161.004 99.2428 160.77C99.5432 160.537 99.7599 160.212 99.8604 159.846L100.905 148.689C101.276 148.857 101.679 148.94 102.086 148.931C102.44 148.923 102.788 148.845 103.112 148.702C103.435 148.559 103.728 148.353 103.972 148.097C104.215 147.841 104.407 147.54 104.534 147.21C104.661 146.881 104.722 146.529 104.713 146.176C104.704 145.823 104.626 145.475 104.482 145.152C104.338 144.829 104.132 144.537 103.876 144.294C103.619 144.051 103.317 143.86 102.987 143.733C102.657 143.607 102.305 143.546 101.951 143.556C101.788 143.555 101.626 143.572 101.467 143.606C101.294 143.419 101.084 143.27 100.85 143.169C100.616 143.069 100.364 143.018 100.109 143.02L88.7522 143.313C88.658 143.317 88.5643 143.328 88.4721 143.348C88.2231 143.394 87.9868 143.494 87.7794 143.639C87.5719 143.784 87.3979 143.972 87.2693 144.19C87.1406 144.408 87.0602 144.651 87.0334 144.902C87.0066 145.154 87.0341 145.408 87.114 145.648L89.0875 160.126ZM101.119 147.932L101.863 145.273C101.947 144.966 101.949 144.642 101.868 144.334C101.905 144.334 101.936 144.317 101.972 144.317C102.482 144.306 102.975 144.498 103.343 144.85C103.712 145.202 103.925 145.685 103.937 146.194C103.949 146.703 103.758 147.196 103.407 147.565C103.056 147.934 102.572 148.149 102.063 148.162C101.733 148.172 101.407 148.093 101.119 147.932Z" fill="#CCCCCC"/>
<path d="M88.4727 143.348C88.7146 144.73 91.4348 145.701 94.7057 145.532C97.7135 145.394 100.173 144.339 100.623 143.089C100.457 143.04 100.283 143.017 100.109 143.021L88.7528 143.313C88.6586 143.317 88.5649 143.328 88.4727 143.348Z" fill="white"/>
<path d="M71.9011 23.2762C77.625 23.2762 82.2651 18.6425 82.2651 12.9265C82.2651 7.21042 77.625 2.57666 71.9011 2.57666C66.1772 2.57666 61.5371 7.21042 61.5371 12.9265C61.5371 18.6425 66.1772 23.2762 71.9011 23.2762Z" fill="#FFB6B6"/>
<path d="M68.1703 8.96639L67.7715 10.7157L74.7432 12.3006C74.7493 11.9468 74.8287 11.5982 74.9762 11.2764C75.1238 10.9547 75.3363 10.6669 75.6005 10.4311C75.4501 11.117 75.4672 11.829 75.6505 12.5069C79.4104 14.6138 79.1943 15.3603 82.2331 14.823C82.6448 14.9166 83.0768 14.843 83.4342 14.6185C83.7916 14.394 84.045 14.0368 84.1387 13.6257C85.3614 8.2625 85.7631 2.78091 80.4189 1.44967C79.1198 1.12531 77.769 1.06322 76.4457 1.26702C75.1223 1.47083 73.853 1.93642 72.7122 2.63652C71.5713 3.33662 70.582 4.25715 69.802 5.34409C69.0221 6.43104 68.4674 7.66253 68.1703 8.96639Z" fill="#2F2E41"/>
<path d="M121.093 74.0384C121.068 74.0089 121.039 73.9827 121.008 73.9606C120.93 73.8708 120.836 73.7971 120.73 73.7436L119.972 73.3382L114.937 67.7561C114.646 67.6045 114.306 67.5721 113.991 67.6658L113.979 67.6697L111.822 68.3358L109.967 68.9107L107.376 69.7128L89.7271 75.1701L78.1263 78.7569C77.8127 78.856 77.5506 79.0742 77.3964 79.3643C77.2422 79.6545 77.2083 79.9936 77.3019 80.3085C77.3565 80.4819 77.4467 80.642 77.5668 80.7785L77.936 81.1888L78.7103 82.0502L80.5042 85.7628L81.0019 86.3175C81.1606 86.4941 81.3662 86.6219 81.5949 86.686C81.8236 86.7501 82.0659 86.7478 82.2933 86.6794L120.512 76.0665C120.71 76.0023 120.89 75.8903 121.035 75.7404C121.18 75.5906 121.286 75.4074 121.343 75.207C121.4 75.0067 121.408 74.7953 121.364 74.5915C121.32 74.3877 121.227 74.1978 121.093 74.0384Z" fill="#CCCCCC"/>
<path d="M118.824 18.822L118.084 18.9418C117.881 18.9754 117.7 19.0878 117.58 19.2544L117.253 19.7098L114.312 27.0544C114.192 27.2224 114.144 27.4309 114.178 27.6342L114.523 29.7268L113.221 67.0786C113.254 67.2718 113.357 67.4457 113.512 67.5664L119.223 75.1948L119.356 75.3005L119.643 75.5254C119.791 75.6392 119.974 75.6973 120.16 75.6895L120.645 75.6664C120.756 75.661 120.863 75.6324 120.962 75.5823C121.06 75.5323 121.147 75.4619 121.216 75.376C121.285 75.2909 121.336 75.1918 121.364 75.0854C121.392 74.979 121.397 74.8679 121.378 74.7596L119.721 19.4611C119.688 19.258 119.575 19.0765 119.407 18.9565C119.24 18.8366 119.031 18.788 118.828 18.8214L118.824 18.822Z" fill="#CCCCCC"/>
<path d="M117.584 21.7242L114.978 29.6504L113.971 61.3086L118.026 64.9085L117.584 21.7242Z" fill="#1985A1"/>
<path d="M65.8397 25.8361L62.5097 24.2775L59.231 29.9747C59.231 29.9747 50.4253 42.5234 50.2976 51.5764C50.1698 60.6294 51.7326 63.3215 51.7326 63.3215C51.7326 63.3215 47.9359 66.1561 49.8343 67.8887C51.7326 69.6214 55.9353 70.369 52.7074 71.1201C49.4796 71.8713 50.2976 79.4758 53.9024 80.8258C57.5073 82.1758 76.8674 82.164 76.8674 82.164C76.6933 81.5744 76.6805 80.949 76.8302 80.3528C76.98 79.7566 77.2868 79.2113 77.7189 78.7735C79.2197 77.2712 80.5716 78.3492 79.2197 76.0103C77.8679 73.6713 75.6149 75.0212 77.4173 71.8713C79.2197 68.7214 79.2191 67.7801 79.2191 67.7801C79.2191 67.7801 78.2528 45.5697 72.7182 37.9938L72.8361 37.7854C73.0199 35.3202 72.4493 32.8575 71.1999 30.7235C69.9504 28.5895 68.0811 26.8851 65.8397 25.8361Z" fill="#1985A1"/>
<path d="M69.8741 15.9455C70.2155 14.4515 70.8846 13.0517 71.8333 11.8473C72.7819 10.6428 73.9865 9.66357 75.36 8.98031C76.7336 8.29705 78.2419 7.92676 79.7761 7.89614C81.3103 7.86553 82.8322 8.17535 84.2319 8.80327C83.747 7.3742 82.7658 6.16578 81.4658 5.3968L73.6184 1.99449C69.7475 1.1145 63.6201 -1.38316 60.8242 1.00868C58.2483 3.20593 59.502 7.507 57.1299 9.9158C54.5304 12.5556 54.3096 15.677 55.0468 17.4724C55.8997 19.5494 57.6059 22.3831 59.7352 22.9964C59.846 22.2654 60.2112 21.5968 60.7665 21.108C60.613 21.8046 60.5997 22.5247 60.7272 23.2265L73.6184 33.4939C72.4144 32.4481 71.3886 29.7536 70.6821 26.7187C70.264 24.9223 67.7689 24.2918 69.7924 21.243C71.8159 18.1942 69.5994 17.1508 69.8741 15.9455Z" fill="#2F2E41"/>
<path d="M65.0566 119.442H69.5627V154.991C69.5627 155.588 69.3254 156.16 68.9028 156.582C68.4803 157.004 67.9072 157.241 67.3097 157.241C66.7121 157.241 66.1391 157.004 65.7165 156.582C65.294 156.16 65.0566 155.588 65.0566 154.991V119.442Z" fill="#F2F2F2"/>
<path d="M51.9806 160.942L58.2858 152.591C60.2864 149.941 62.2046 147.186 64.3182 144.63C65.0692 143.722 65.9415 142.783 67.0523 142.509C67.4899 142.397 67.9508 142.416 68.3773 142.565C68.8812 142.741 69.346 143.013 69.746 143.365C70.6751 144.225 71.4546 145.232 72.0525 146.347C72.8396 147.712 73.5673 149.113 74.2449 150.535C75.7802 153.776 77.0288 157.144 77.9765 160.602C78.4389 162.275 81.048 161.565 80.5836 159.885C79.6453 156.502 78.4372 153.2 76.9711 150.011C76.2571 148.454 75.4802 146.927 74.6405 145.432C73.941 144.104 73.0594 142.88 72.0213 141.795C70.9714 140.687 69.5723 139.973 68.0581 139.771C66.4335 139.595 64.9267 140.326 63.7205 141.353C62.5087 142.384 61.5983 143.749 60.6466 145.009L57.2928 149.451L49.6461 159.579C49.2063 160.162 49.553 161.089 50.1311 161.426C50.4426 161.598 50.8086 161.644 51.153 161.554C51.4974 161.464 51.7938 161.245 51.9806 160.942Z" fill="#F2F2F2"/>
<path d="M95.2488 70.8431C94.6534 70.8426 94.0652 70.9733 93.5262 71.2259C92.9872 71.4786 92.5107 71.8469 92.1306 72.3046L74.5208 66.3432L69.457 50.2604L61.4531 51.0258L65.9592 75.343L92.6587 78.0678L92.6613 78.0111C93.1625 78.4258 93.7563 78.714 94.3925 78.8513C95.0287 78.9886 95.6886 78.9709 96.3166 78.7998C96.9445 78.6287 97.522 78.3091 98.0002 77.8682C98.4784 77.4272 98.8432 76.8777 99.064 76.2663C99.2847 75.6548 99.3548 74.9992 99.2683 74.355C99.1819 73.7107 98.9414 73.0967 98.5673 72.5649C98.1931 72.033 97.6962 71.5989 97.1186 71.2992C96.541 70.9995 95.8997 70.8431 95.2488 70.8431Z" fill="#FFB6B6"/>
<path d="M69.1039 40.3314L68.7197 40.2632C66.7135 39.905 64.6466 40.3454 62.9616 41.4901C61.2765 42.6348 60.1072 44.3929 59.7041 46.3878C59.2319 48.7488 58.7206 50.8323 58.338 51.1533C57.3962 51.9435 56.8853 52.698 58.042 53.2207C59.1986 53.7434 56.9456 52.1809 60.5505 54.0871C64.1554 55.9934 64.1554 53.7434 67.3096 54.6434C70.4639 55.5434 72.295 57.0422 73.8578 55.6178C75.4206 54.1934 78.1758 55.0296 77.2488 52.8115C76.3218 50.5935 75.4206 51.9435 75.4206 47.8935C75.4206 47.853 75.4205 47.8127 75.4203 47.7725C75.4049 45.9903 74.7646 44.2699 73.6106 42.9104C72.4565 41.5509 70.8619 40.6383 69.1039 40.3314Z" fill="#1985A1"/>
<path d="M193.217 116.999C203.047 116.999 211.016 115.69 211.016 114.074C211.016 112.459 203.047 111.149 193.217 111.149C183.387 111.149 175.418 112.459 175.418 114.074C175.418 115.69 183.387 116.999 193.217 116.999Z" fill="#E6E6E6"/>
<path d="M211.108 97.1815C211.115 101.476 209.56 105.628 206.733 108.864C206.028 109.676 205.249 110.421 204.407 111.089C203.129 112.114 201.714 112.956 200.204 113.592H186.361C184.851 112.956 183.436 112.114 182.158 111.089C181.316 110.421 180.537 109.676 179.832 108.864C179.004 107.912 178.279 106.876 177.668 105.774C176.395 103.466 175.651 100.905 175.489 98.2758C175.327 95.6463 175.751 93.0137 176.731 90.5678C177.712 88.122 179.223 85.9238 181.157 84.132C183.091 82.3402 185.399 80.9993 187.915 80.2061C190.43 79.413 193.091 79.1872 195.705 79.5452C198.318 79.9032 200.82 80.836 203.029 82.2763C205.238 83.7166 207.099 85.6286 208.478 87.8742C209.858 90.1199 210.721 92.6432 211.005 95.2623C211.075 95.8997 211.109 96.5404 211.108 97.1815Z" fill="#3F3D56"/>
<path d="M206.732 108.864C206.028 109.676 205.249 110.421 204.407 111.089H182.158C181.315 110.421 180.537 109.676 179.832 108.864H206.732Z" fill="#1985A1"/>
<path d="M211.005 95.2623C207.281 101.034 200.427 105.512 192.082 106.872C187.26 107.691 182.31 107.314 177.668 105.774C176.395 103.466 175.651 100.905 175.489 98.2758C175.327 95.6463 175.751 93.0137 176.731 90.5678C177.712 88.122 179.223 85.9238 181.157 84.132C183.091 82.3402 185.399 80.9993 187.915 80.2061C190.43 79.413 193.091 79.1872 195.705 79.5452C198.318 79.9032 200.82 80.836 203.029 82.2763C205.238 83.7166 207.099 85.6286 208.478 87.8742C209.858 90.1199 210.721 92.6432 211.005 95.2623Z" fill="#1985A1"/>
<path d="M152.966 122.449L156.916 119.431L147.136 102.78L141.307 107.236L152.966 122.449Z" fill="#FFB6B6"/>
<path d="M149.607 120.733L155.629 115.534L157.698 118.234L166.869 117.787C167.321 117.765 167.77 117.888 168.148 118.138C168.525 118.388 168.813 118.752 168.969 119.177C169.125 119.603 169.141 120.067 169.014 120.501C168.888 120.936 168.625 121.319 168.265 121.594L160.752 127.336L157.411 125.655L158.952 128.712L156.119 130.876L149.607 120.733Z" fill="#2F2E41"/>
<path d="M153.609 110.764L147.956 116.944C144.025 114.275 131.664 104.036 121.965 98.3247C115.698 94.6261 110.859 91.8055 110.859 91.8055C110.859 91.8055 110.068 92.7025 108.81 94.1103C104.205 99.2717 93.3509 111.268 92.5026 110.688C91.4264 109.952 90.0133 110.909 89.9319 113.172C89.8715 114.822 86.9693 115.718 85.3975 116.087C84.8072 116.223 84.4059 116.288 84.4059 116.288C84.1281 116.426 83.8504 116.563 83.5781 116.692C74.7388 120.859 65.1757 118.385 59.0862 112.243C56.9033 110.059 55.2142 107.434 54.1325 104.544C53.0509 101.653 52.6018 98.5649 52.8155 95.4867L53.718 81.5532L73.975 82.8305L76.8284 90.022L83.7544 85.527L98.9171 75.6871L104.454 72.0926C104.454 72.0926 104.322 72.0602 104.549 71.4691C105.224 71.1928 105.922 70.9772 106.635 70.8249C106.756 70.7972 106.876 70.774 106.996 70.7552C113.768 69.5296 118.202 75.0945 118.202 75.0945C118.202 75.0945 146.425 98.9329 147.601 99.2541C148.776 99.5799 149.257 101.573 149.351 102.045C149.443 102.489 151.087 105.12 151.949 105.154C154.638 105.267 153.609 110.764 153.609 110.764Z" fill="#2F2E41"/>
<path d="M62.3656 126.598C58.1254 117.535 27.2047 126.296 25.1724 106.492C24.6137 100.728 28.9395 95.7465 33.049 91.6606C62.28 71.474 5.20594 56.5568 27.3804 36.6267C30.7479 34.668 34.3239 33.0907 38.0418 31.9243C43.1742 30.4168 47.0044 30.6958 49.9063 32.2707C50.3289 32.5011 50.7353 32.7597 51.123 33.0447C63.8391 42.427 56.1472 80.3343 69.4943 92.106C74.5771 96.111 97.058 103.869 100.667 109.917C100.763 110.08 100.849 110.248 100.924 110.421C102.159 112.794 74.2989 119.261 76.5914 124.82C79.7456 132.47 62.0932 143.623 62.3656 126.598Z" fill="#F2F2F2"/>
<path d="M2.37453e-06 161.465C-0.00020764 161.535 0.0135154 161.605 0.0403905 161.67C0.0672656 161.735 0.106753 161.794 0.156591 161.844C0.206428 161.893 0.265639 161.933 0.330794 161.96C0.39595 161.987 0.465776 162 0.536255 162H294.464C294.606 162 294.742 161.944 294.843 161.843C294.944 161.743 295 161.607 295 161.465C295 161.322 294.944 161.186 294.843 161.086C294.742 160.985 294.606 160.929 294.464 160.929H0.536228C0.465752 160.929 0.395918 160.943 0.330767 160.969C0.265615 160.996 0.206425 161.036 0.156591 161.085C0.106756 161.135 0.0672648 161.194 0.0403905 161.259C0.0135162 161.324 -0.000205231 161.394 2.37453e-06 161.465Z" fill="#CCCCCC"/>
<path d="M86.9551 79.1261C86.9551 81.9841 89.3717 87.4712 75.2393 87.4712C61.107 87.4712 35.7773 81.9841 35.7773 79.1261C35.7773 76.2681 47.2339 73.9512 61.3662 73.9512C75.4986 73.9512 86.9551 76.268 86.9551 79.1261Z" fill="#F2F2F2"/>
</g>
<defs>
<clipPath id="clip0_789_363">
<rect width="295" height="162" fill="white"/>
</clipPath>
</defs>
</svg>
