<svg width="214" height="197" viewBox="0 0 214 197" fill="none" xmlns="http://www.w3.org/2000/svg">
<g clip-path="url(#clip0_789_473)">
<path d="M190.466 185.476C190.543 189.133 190.039 192.778 188.975 196.276C188.938 196.403 188.893 196.53 188.848 196.657H166.902C167.216 195.108 167.714 193.603 168.386 192.173C170.212 188.286 173.194 184.961 176.138 181.657C180.194 177.106 184.152 172.592 184.778 166.672C186.385 169.129 187.668 171.785 188.595 174.572C187.461 174.993 186.42 175.633 185.531 176.455C185.285 176.687 185.024 177.023 185.151 177.345C185.27 177.614 185.598 177.704 185.889 177.763C186.589 177.898 187.29 178.032 187.991 178.16C188.542 178.272 189.102 178.376 189.661 178.481C190.152 180.781 190.422 183.124 190.466 185.476Z" fill="#F2F2F2"/>
<path d="M208.901 183.055C205.382 185.2 203.146 188.518 201.32 192.232C199.73 192.596 198.263 193.368 197.063 194.475C196.81 194.706 196.549 195.043 196.683 195.364C196.795 195.633 197.13 195.723 197.421 195.782C198.114 195.917 198.822 196.052 199.516 196.179C199.449 196.336 199.381 196.5 199.314 196.657H176.057C177.112 195.229 178.282 193.89 179.553 192.651C179.829 192.374 180.112 192.113 180.403 191.844C183.367 189.157 186.772 187.003 190.466 185.476C196.286 183.037 202.65 182.201 208.901 183.055Z" fill="#F2F2F2"/>
<path d="M179.933 196.657H159.224C159.111 194.994 159.121 193.326 159.254 191.664C159.703 186.523 161.258 181.54 163.812 177.059C166.367 172.578 169.86 168.705 174.051 165.708C172.978 169.542 173.529 173.354 174.648 177.18C174.491 177.233 174.334 177.278 174.193 177.337C173.059 177.759 172.018 178.398 171.129 179.221C170.883 179.452 170.622 179.789 170.749 180.11C170.861 180.379 171.196 180.469 171.487 180.529C172.188 180.663 172.888 180.798 173.582 180.925C174.141 181.037 174.7 181.141 175.259 181.254C175.52 181.298 175.781 181.351 176.042 181.403C176.079 181.493 176.101 181.575 176.138 181.657C177.45 185.282 178.882 188.937 179.553 192.651C179.719 193.583 179.833 194.524 179.895 195.469C179.918 195.865 179.933 196.261 179.933 196.657Z" fill="#F2F2F2"/>
<path d="M21.4716 14.0537C25.3424 14.0537 28.4802 10.9077 28.4802 7.02684C28.4802 3.14602 25.3424 0 21.4716 0C17.6008 0 14.4629 3.14602 14.4629 7.02684C14.4629 10.9077 17.6008 14.0537 21.4716 14.0537Z" fill="#FD6584"/>
<path d="M37.157 3.69991C36.9588 3.04995 36.5755 2.47224 36.0542 2.03784C35.5328 1.60344 34.8962 1.33129 34.2226 1.25486C34.2074 1.25271 34.1929 1.25555 34.1778 1.25457C34.1582 1.24857 34.1382 1.24395 34.1179 1.24076C30.9128 0.825441 27.2129 2.36236 25.8771 5.40888C25.5512 4.96331 25.1219 4.60398 24.6265 4.36193C24.1311 4.11988 23.5843 4.00238 23.0335 4.01959C22.3232 4.06704 21.6447 4.33281 21.0905 4.78071C20.5362 5.22861 20.1331 5.83687 19.936 6.52269C19.915 6.60664 19.9213 6.6951 19.9538 6.77525C19.9863 6.85541 20.0435 6.92309 20.117 6.9685C20.3287 7.14837 20.5794 7.276 20.8492 7.34116C21.4313 7.4648 22.0155 7.57806 22.6017 7.68094C23.7456 7.88164 24.8955 8.0439 26.0513 8.16773C28.3976 8.41982 30.7584 8.50928 33.117 8.43549C33.9025 8.41095 34.6601 8.38481 35.3798 8.03723C35.9034 7.77794 36.3508 7.38655 36.6779 6.90151C36.9861 6.43531 37.1887 5.90709 37.2715 5.35397C37.3543 4.80085 37.3152 4.23626 37.157 3.69991Z" fill="#F0F0F0"/>
<path d="M22.5906 13.069C22.3924 12.4191 22.0091 11.8414 21.4877 11.407C20.9664 10.9726 20.3298 10.7004 19.6562 10.624C19.641 10.6219 19.6265 10.6247 19.6113 10.6237C19.5918 10.6177 19.5718 10.6131 19.5515 10.6099C16.3464 10.1946 12.6465 11.7315 11.3107 14.778C10.9847 14.3324 10.5555 13.9731 10.0601 13.731C9.56467 13.489 9.01792 13.3715 8.46706 13.3887C7.75676 13.4362 7.07829 13.702 6.52404 14.1499C5.96979 14.5978 5.56668 15.206 5.36959 15.8918C5.34862 15.9758 5.35487 16.0642 5.38741 16.1444C5.41994 16.2245 5.47709 16.2922 5.55057 16.3376C5.76225 16.5175 6.01304 16.6451 6.2828 16.7103C6.86488 16.8339 7.44903 16.9472 8.03525 17.0501C9.17916 17.2508 10.329 17.413 11.4849 17.5369C13.8312 17.789 16.192 17.8784 18.5506 17.8046C19.3361 17.7801 20.0937 17.7539 20.8134 17.4063C21.337 17.147 21.7844 16.7557 22.1115 16.2706C22.4197 15.8044 22.6223 15.2762 22.7051 14.7231C22.7879 14.17 22.7488 13.6054 22.5906 13.069Z" fill="#F0F0F0"/>
<path d="M90.015 122.134C89.8376 122.394 89.3712 122.705 89.1893 122.961L89.3833 122.372L89.3172 122.235L88.9044 121.407L78.3936 100.17L78.3895 100.166L60.5715 64.1808V64.1767L60.1627 63.353V63.3489L51.3446 45.5386L50.9277 44.6942C51.2414 44.7025 51.5551 44.7149 51.8689 44.7315L52.29 45.58L61.0835 63.3489L61.0876 63.353L61.4964 64.1767V64.1808L78.86 99.251V99.2551L79.2688 100.079V100.083L89.7796 121.304L89.9199 121.589L90.015 122.134Z" fill="#3F3D56"/>
<path d="M88.8413 64.1808H10.1797C10.3903 63.9035 10.6048 63.6262 10.8278 63.353H88.1932C88.4161 63.6262 88.6306 63.9035 88.8413 64.1808Z" fill="#3F3D56"/>
<path d="M98.8078 99.2551C98.783 99.5324 98.7542 99.8097 98.7169 100.083H78.5664V99.2551H98.8078Z" fill="#3F3D56"/>
<path d="M13.1733 60.6254V127.231C12.8885 126.929 12.616 126.622 12.3477 126.316V61.5401C12.616 61.2338 12.8885 60.9275 13.1733 60.6254Z" fill="#3F3D56"/>
<path d="M89.5747 121.407H12.7617V122.235H89.5747V121.407Z" fill="#3F3D56"/>
<path d="M89.5068 122.133H89.6017V121.997C89.5729 122.044 89.5412 122.09 89.5068 122.133ZM88.871 64.0792C88.6603 63.8019 88.4459 63.5246 88.2229 63.2514C83.8378 57.7353 78.3291 53.2209 72.0649 50.0097C65.8007 46.7984 58.9251 44.9643 51.8975 44.6298C51.5838 44.6133 51.2701 44.6009 50.9563 44.5926C50.4856 44.5802 50.0149 44.5719 49.5402 44.5719C42.7125 44.5683 35.9582 45.9839 29.7038 48.7295C23.4494 51.4752 17.8307 55.4911 13.2025 60.5238C12.9176 60.8259 12.6451 61.1322 12.3768 61.4385C11.8525 62.0304 11.3461 62.6347 10.8575 63.2514C10.6346 63.5246 10.4201 63.8019 10.2094 64.0792C3.2327 73.1982 -0.365948 84.4647 0.0294297 95.9506C0.424808 107.436 4.78963 118.427 12.3768 127.042C12.6451 127.349 12.9176 127.655 13.2025 127.957C18.1916 133.374 24.3225 137.608 31.149 140.35C37.9756 143.093 45.3261 144.275 52.6657 143.811C60.0053 143.346 67.1493 141.247 73.578 137.667C80.0066 134.086 85.5582 129.113 89.8287 123.11C90.0105 122.854 90.1921 122.597 90.3695 122.336C94.9478 115.686 97.8245 108.009 98.7459 99.9813C98.7832 99.7081 98.8121 99.4308 98.8368 99.1535C98.9977 97.5393 99.0789 95.9016 99.0804 94.2405C99.093 83.3322 95.5031 72.7267 88.871 64.0792ZM97.9163 99.9813C97.0176 107.687 94.2849 115.063 89.9484 121.488C89.837 121.658 89.7214 121.827 89.6017 121.997C89.5729 122.044 89.5412 122.09 89.5068 122.133C89.4779 122.179 89.4449 122.225 89.4118 122.27C85.2005 128.303 79.6817 133.302 73.2691 136.891C66.8565 140.481 59.7165 142.569 52.3845 142.998C45.0525 143.428 37.7187 142.187 30.9329 139.37C24.1472 136.553 18.0855 132.232 13.2025 126.732C12.9176 126.417 12.6411 126.103 12.3768 125.78C5.11737 117.205 1.03923 106.377 0.833819 95.1312C0.628408 83.8857 4.30836 72.915 11.2497 64.0792C11.4687 63.8019 11.6874 63.5246 11.9144 63.2514C12.0631 63.0652 12.2157 62.883 12.3768 62.7009C12.6411 62.3781 12.9176 62.0635 13.2025 61.7489C17.7631 56.6041 23.3597 52.4868 29.6232 49.6687C35.8867 46.8506 42.6749 45.3956 49.5402 45.3997C50.1554 45.3997 50.7664 45.4121 51.3731 45.4369C51.691 45.4452 52.0049 45.4618 52.3185 45.4783C59.0372 45.8634 65.6031 47.6417 71.6013 50.7009C77.5994 53.7601 82.8993 58.0337 87.166 63.2514C87.393 63.5246 87.6119 63.8019 87.8306 64.0792C95.6206 74.0107 99.2696 86.582 98.0112 99.1535C97.9821 99.4308 97.9534 99.7082 97.9163 99.9813ZM89.5068 122.133H89.6017V121.997C89.5729 122.044 89.5412 122.09 89.5068 122.133Z" fill="#CCCCCC"/>
<path d="M43.2957 28.822C43.2957 29.0497 43.2884 29.2754 43.2737 29.4992C43.1912 30.79 42.866 32.0534 42.3151 33.223C42.3108 33.233 42.3058 33.2423 42.3016 33.2516C42.2759 33.3058 42.2496 33.36 42.2226 33.4136C42.0587 33.7444 41.877 34.0659 41.6781 34.3768C40.7698 35.804 39.5249 36.985 38.0533 37.8153C36.5817 38.6455 34.9287 39.0996 33.2405 39.1374L33.3423 45.0054L34.6696 44.3047L34.9066 44.7564L33.3523 45.5769L33.5423 56.4752L33.5444 56.6208L32.5182 56.8498L32.5203 56.7036L32.8434 39.1381C31.4846 39.1186 30.1431 38.8286 28.897 38.285C27.6508 37.7414 26.5248 36.955 25.5843 35.9715C25.5196 35.9045 25.4555 35.8352 25.3928 35.7667L25.3857 35.7589C24.6021 34.9021 23.9684 33.9189 23.5112 32.8506C23.5212 32.862 23.5318 32.8727 23.5418 32.8841C19.301 22.1994 21.7683 17.2462 28.4224 19.5855C28.458 19.5677 28.4943 19.5506 28.5299 19.5327C30.8573 18.4088 33.521 18.2025 35.9929 18.9549C38.4648 19.7073 40.5646 21.3633 41.876 23.5948C41.9386 23.7004 41.9991 23.8081 42.0575 23.9166C42.8721 25.4225 43.2978 27.1089 43.2957 28.822Z" fill="#E5E5E5"/>
<path d="M55.3985 19.7335C55.2744 21.7835 54.7453 23.7883 53.8421 25.6316C52.104 29.1581 49.0532 31.8319 45.251 32.8294C45.2446 32.8328 45.2375 32.8342 45.2303 32.8336C44.2736 33.0837 43.2917 33.224 42.3033 33.2516H42.2208C42.1176 33.2558 42.0143 33.2557 41.9111 33.2557C41.841 33.2557 41.7708 33.2558 41.7006 33.2516C38.1606 33.1969 34.7842 31.7486 32.3001 29.2194C29.8161 26.6902 28.4238 23.283 28.4238 19.7335V19.5845C28.43 18.7215 28.555 17.8635 28.7954 17.0348C28.7954 17.0307 28.7995 17.0266 28.7995 17.0224C29.2479 15.5824 30.0566 14.2814 31.1485 13.2435C33.8526 10.5614 38.1337 8.87678 41.9111 6.21123C50.1844 0.375168 56.2613 6.18226 55.3985 19.7335Z" fill="#E5E5E5"/>
<path opacity="0.2" d="M53.8411 25.6317C52.103 29.1582 49.0522 31.832 45.25 32.8295C45.2436 32.8328 45.2365 32.8343 45.2294 32.8336C44.2752 33.0711 43.2976 33.2016 42.3147 33.2227H42.2198C42.0464 33.2269 41.873 33.2269 41.6996 33.2227C38.1501 33.1339 34.7783 31.6475 32.3136 29.0851C29.849 26.5226 28.4898 23.0903 28.5302 19.5307C28.5427 18.6925 28.6312 17.8571 28.7944 17.0349C28.7944 17.0308 28.7985 17.0266 28.7985 17.0225C29.2469 15.5824 30.0556 14.2815 31.1475 13.2435C30.7808 14.9974 30.7655 16.8069 31.1024 18.5668C31.4393 20.3267 32.1218 22.002 33.1102 23.4951C34.0985 24.9882 35.3731 26.2695 36.8597 27.2644C38.3463 28.2594 40.0153 28.9481 41.7698 29.2906C41.8978 29.3155 42.0257 29.3403 42.1537 29.361C42.5253 29.4231 42.8968 29.4686 43.2725 29.4976C45.2079 29.655 47.1545 29.3911 48.9786 28.7238C50.8028 28.0566 52.4615 27.0018 53.8411 25.6317Z" fill="black"/>
<path d="M42.3685 41.693L44.4048 40.6184L44.0941 40.0266L42.3548 40.9446L42.2241 33.4138V33.4129L42.2209 33.2534V33.225L42.1534 29.3616L42.0588 23.9168L41.9862 19.7332H41.9482L41.8773 23.5947V23.5956L41.7727 29.292L41.7004 33.2225L41.7001 33.2553L41.6793 34.3767L41.2665 56.8725L41.2637 57.021L42.6412 57.4087L42.6387 57.2589L42.3685 41.693Z" fill="#3F3D56"/>
<path d="M91.5008 68.3327C82.9393 66.6127 74.3504 65.0525 65.6572 64.0977C57.4144 63.1256 49.1021 62.8846 40.8171 63.3775C33.3347 63.8835 25.7882 65.0701 18.7591 67.7751C13.3426 69.8595 7.56883 73.0132 4.64303 78.2725C1.82268 83.3423 2.92271 89.1888 5.99371 93.8664C9.68875 99.4945 15.4507 103.351 21.4411 106.17C28.2618 109.379 35.5572 111.46 42.8619 113.229C46.5666 114.126 50.2914 114.938 54.0165 115.745C54.7936 115.913 55.1257 114.716 54.3458 114.547C46.8338 112.92 39.3 111.287 31.9745 108.931C25.1956 106.751 18.2583 103.958 12.7069 99.3807C8.21586 95.6772 3.94579 90.2679 4.21087 84.1176C4.4781 77.9175 9.66664 73.5886 14.7521 70.924C21.1075 67.5941 28.3282 65.972 35.4036 65.1243C43.505 64.2192 51.6752 64.1078 59.7982 64.7916C70.6544 65.6198 81.3501 67.541 92.0048 69.6929" fill="black"/>
<path d="M51.3072 78.2068C54.9101 80.0123 57.1036 82.3968 57.1036 85.0122C57.1036 90.6463 46.935 95.2136 34.3915 95.2136C28.9379 95.2136 23.9347 94.3495 20.0195 92.9105C24.178 94.9944 30.2144 96.3066 36.9353 96.3066C49.4787 96.3066 59.6474 91.7393 59.6474 86.1052C59.6474 82.9206 56.3972 80.0776 51.3072 78.2068Z" fill="#F1F1F1"/>
<path d="M59.322 82.0769C63.3875 84.1141 65.8626 86.8048 65.8626 89.7559C65.8626 96.1133 54.3885 101.267 40.2347 101.267C34.0809 101.267 28.4354 100.292 24.0176 98.6683C28.7099 101.02 35.5213 102.5 43.105 102.5C57.2588 102.5 68.7329 97.3467 68.7329 90.9893C68.7329 87.3959 65.0655 84.1879 59.322 82.0769Z" fill="#F1F1F1"/>
<path d="M48.2403 79.9115C50.7786 81.1835 52.324 82.8634 52.324 84.706C52.324 88.6754 45.1599 91.8932 36.3227 91.8932C32.8798 91.9378 29.4548 91.389 26.1973 90.2706C29.127 91.7388 33.3798 92.6632 38.1148 92.6632C46.952 92.6632 54.1161 89.4454 54.1161 85.4761C54.1161 83.2325 51.8263 81.2295 48.2403 79.9115Z" fill="#F1F1F1"/>
<path d="M34.7238 87.5129C29.5042 87.5129 26.9659 86.0773 25.7556 84.8731C25.5348 84.652 25.3843 84.3702 25.3234 84.0634C25.2624 83.7566 25.2936 83.4385 25.4131 83.1494C25.5325 82.8604 25.7348 82.6134 25.9944 82.4397C26.254 82.2661 26.5591 82.1736 26.8712 82.1739H45.0805C45.3284 82.1737 45.5702 82.251 45.7722 82.3951C45.9742 82.5391 46.1264 82.7427 46.2076 82.9776C46.2888 83.2124 46.295 83.4668 46.2252 83.7053C46.1555 83.9438 46.0133 84.1546 45.8185 84.3083C43.9636 85.7702 40.5331 87.5129 34.7238 87.5129Z" fill="#3F3D56"/>
<path d="M38.5043 69.1405C37.0847 68.0592 35.303 67.5706 33.5321 67.7769C36.6759 68.5551 34.1951 72.9111 37.0581 77.4287C38.6183 79.8906 35.584 81.0976 32.6934 81.428C34.2404 81.8024 35.8689 81.6314 37.3051 80.9437C38.7412 80.256 39.8973 79.0935 40.5792 77.6517C41.261 76.2099 41.4269 74.5767 41.0491 73.0267C40.6712 71.4767 39.7726 70.1044 38.5043 69.1405Z" fill="#3F3D56"/>
<path d="M35.2818 66.8696H34.6113V82.8699H35.2818V66.8696Z" fill="#3F3D56"/>
<path d="M99.8026 71.3603C98.0219 70.103 96.0116 69.2097 93.8865 68.7313C91.7614 68.2529 89.5632 68.1989 87.4173 68.5723C85.2714 68.9457 83.2198 69.7392 81.3798 70.9074C79.5398 72.0757 77.9472 73.5959 76.6932 75.3813C71.4192 82.8897 66.1271 102.579 69.8628 113.984C81.0054 102.184 98.1236 100.958 103.813 94.5296C109.893 87.6606 107.292 76.648 99.8026 71.3603Z" fill="#1985A1"/>
<path d="M90.0281 88.3625C93.0154 88.3625 95.437 85.9346 95.437 82.9396C95.437 79.9445 93.0154 77.5166 90.0281 77.5166C87.0408 77.5166 84.6191 79.9445 84.6191 82.9396C84.6191 85.9346 87.0408 88.3625 90.0281 88.3625Z" fill="white"/>
<path d="M65.2908 119.89C67.2474 119.89 68.8335 118.3 68.8335 116.338C68.8335 114.377 67.2474 112.786 65.2908 112.786C63.3342 112.786 61.748 114.377 61.748 116.338C61.748 118.3 63.3342 119.89 65.2908 119.89Z" fill="#1985A1"/>
<path opacity="0.2" d="M95.8145 81.6883C96.1726 82.3032 96.4065 82.9829 96.5026 83.6885C96.5988 84.3941 96.5554 85.1118 96.3749 85.8005C96.1944 86.4893 95.8804 87.1357 95.4507 87.7028C95.0211 88.2699 94.4842 88.7465 93.8708 89.1056C93.2575 89.4647 92.5795 89.6991 91.8758 89.7955C91.172 89.8919 90.4562 89.8484 89.7692 89.6675C89.0822 89.4865 88.4375 89.1717 87.8719 88.7409C87.3063 88.3101 86.8308 87.7719 86.4727 87.1569C87.4381 88.0061 88.6735 88.4831 89.9577 88.5025C91.2419 88.5219 92.491 88.0825 93.4816 87.2628C94.4721 86.4432 95.1394 85.2969 95.364 84.0291C95.5886 82.7613 95.3558 81.4547 94.7074 80.3433C95.1464 80.7288 95.5202 81.183 95.8145 81.6883Z" fill="#231F20"/>
<path opacity="0.2" d="M103.824 94.5551C98.134 100.984 81.0157 102.21 69.8732 114.01C69.5254 112.931 69.2577 111.827 69.0723 110.708C80.2093 99.9811 96.3746 98.6254 101.872 92.4143C106.792 86.8553 106.026 78.583 101.586 72.827C107.675 78.4866 109.395 88.2603 103.824 94.5551Z" fill="#231F20"/>
<path d="M162.153 192.649H158.116L156.195 177.035H162.154L162.153 192.649Z" fill="#FFB6B6"/>
<path d="M163.185 196.573L150.166 196.572V196.407C150.166 195.06 150.7 193.767 151.65 192.815C152.601 191.862 153.889 191.327 155.233 191.327H155.234L157.612 189.518L162.048 191.327L163.185 191.327L163.185 196.573Z" fill="#2F2E41"/>
<path d="M146.508 190.098L142.57 190.989L137.266 176.183L143.078 174.868L146.508 190.098Z" fill="#FFB6B6"/>
<path d="M148.375 193.698L135.676 196.573L135.64 196.412C135.344 195.097 135.581 193.719 136.299 192.58C137.016 191.441 138.156 190.634 139.467 190.337L139.467 190.337L141.389 188.047L146.114 188.832L147.223 188.581L148.375 193.698Z" fill="#2F2E41"/>
<path d="M167.267 97.1952C169.16 102.919 168.96 109.132 166.812 115.801L165.894 153.346C167.412 155.021 168.365 161.85 166.026 166.74C162.904 173.27 165.055 182.3 162.848 186.632H156.446L154.873 168.995L153.487 167.006L153.276 151.098C152.426 149.079 151.441 147.078 153.17 144.739L153.124 141.976L152.878 127.247L143.223 141.402C142.949 144.606 141.316 146.284 139.153 147.369L142.143 160.6C147.373 165.088 146.094 172.034 146.18 178.464L147.895 186.051L140.016 186.757L136.539 176.468L132.629 170.127L125.83 144.778L130.572 133.745L132.51 129.235L143.332 104.051L167.267 97.1952Z" fill="#2F2E41"/>
<path d="M100.379 76.7809C100.695 77.0969 101.076 77.3396 101.495 77.492C101.914 77.6443 102.362 77.7027 102.806 77.6629C103.25 77.6231 103.681 77.4861 104.066 77.2616C104.452 77.0371 104.784 76.7306 105.039 76.3635L115.476 79.305L113.763 73.9239L104.114 71.9556C103.471 71.5673 102.708 71.4292 101.97 71.5673C101.231 71.7054 100.569 72.1102 100.109 72.705C99.6486 73.2998 99.4218 74.0432 99.4716 74.7944C99.5214 75.5457 99.8443 76.2525 100.379 76.7809Z" fill="#FFB8B8"/>
<path d="M108.915 72.4348L119.103 72.3599C121.85 71.5898 124.747 71.5241 127.526 72.1686L128.067 72.294L132.318 71.8105C134.853 66.7308 139.556 62.1382 145.87 57.9074C146.822 57.1381 147.926 56.5796 149.109 56.2688C150.291 55.958 151.527 55.9019 152.733 56.1042C153.939 56.3065 155.088 56.7626 156.106 57.4425C157.124 58.1224 157.986 59.0106 158.637 60.0488C159.811 61.9281 160.225 64.1865 159.792 66.3616C159.36 68.5366 158.115 70.4638 156.312 71.7484L137.073 83.089C135.385 84.084 133.468 84.6213 131.51 84.648L131.463 84.6723L120.488 80.5498L114.843 79.8295L107.188 77.5989L108.915 72.4348Z" fill="#1985A1"/>
<path d="M149.79 48.5997C155.098 48.5997 159.401 44.2852 159.401 38.9629C159.401 33.6407 155.098 29.3262 149.79 29.3262C144.481 29.3262 140.178 33.6407 140.178 38.9629C140.178 44.2852 144.481 48.5997 149.79 48.5997Z" fill="#FFB8B8"/>
<path d="M158.765 45.0748C159.477 44.0556 159.983 42.4234 160.281 41.2304C160.68 39.6595 160.746 38.022 160.474 36.4241C160.202 34.8262 159.597 33.3034 158.701 31.9545C158.37 31.4048 157.895 30.956 157.329 30.6565C156.747 30.3962 155.981 30.4582 155.575 30.9507C155.574 30.5186 155.484 30.0913 155.312 29.6952C155.14 29.2991 154.888 28.9426 154.573 28.6478C153.938 28.0614 153.175 27.6314 152.345 27.392C150.746 26.9032 149.045 26.8575 147.423 27.2597C145.8 27.6619 144.317 28.4971 143.129 29.6765C142.665 30.1497 142.831 27.7852 142.316 28.2017C141.817 28.6492 141.163 28.883 140.494 28.8532C139.836 28.783 138.626 31.1339 138.619 30.4705C137.927 31.166 137.622 34.0989 137.838 35.0572C138.055 36.0155 141.276 35.5919 142.2 35.9204C142.812 36.1379 143.476 36.1453 144.11 36.2869C145.236 36.5787 146.218 37.274 146.868 38.2415C147.518 39.2089 147.792 40.3815 147.639 41.538C148.045 40.9915 148.535 40.5142 149.092 40.1247C149.373 39.9323 149.696 39.8099 150.033 39.7677C150.37 39.7255 150.713 39.7646 151.032 39.8819C151.32 40.0369 151.574 40.2493 151.777 40.5061C151.98 40.7629 152.129 41.0587 152.214 41.3752C152.424 41.9948 152.505 42.6526 152.719 43.2708C153.346 45.0849 153.669 46.9893 155.417 47.4194C156.796 47.7588 157.792 46.4663 158.765 45.0748Z" fill="#2F2E41"/>
<path d="M168.089 95.2847L167.033 93.1686C165.741 85.1441 164.465 77.6595 166.199 70.9272C166.308 65.0501 164.496 59.5287 159.466 56.5137L157.196 55.1529L156.047 52.2314L145.469 52.4905L145.438 56.3202L141.649 62.3783V62.4033L141.886 95.369L142.932 98.7711L141.354 102.729L142.191 105.254L163.046 101.911L165.471 101.521C165.751 101.431 166.021 101.313 166.277 101.168C167.147 100.684 167.829 99.9195 168.213 98.9989C168.235 98.9458 168.254 98.8959 168.272 98.8428C168.436 98.4131 168.531 97.9601 168.553 97.5007C168.59 96.7344 168.431 95.9712 168.089 95.2847Z" fill="#1985A1"/>
<path opacity="0.2" d="M168.552 97.5008C168.53 97.9602 168.435 98.4132 168.271 98.8429L166.276 101.168C166.02 101.313 165.75 101.431 165.47 101.521L163.044 101.911L166.553 95.2973L158.842 78.3712L168.552 97.5008Z" fill="black"/>
<path d="M176.944 117.078C176.557 116.813 176.233 116.467 175.994 116.063C175.754 115.659 175.607 115.207 175.56 114.739C175.514 114.272 175.571 113.8 175.726 113.357C175.882 112.913 176.132 112.51 176.46 112.174L171.385 101.95L177.261 102.668L181.18 112.266C181.705 112.856 181.997 113.619 182 114.41C182.003 115.201 181.716 115.965 181.194 116.558C180.672 117.151 179.951 117.532 179.168 117.628C178.384 117.723 177.593 117.528 176.944 117.078Z" fill="#FFB8B8"/>
<path d="M156.369 81.8998L160.219 81.3666C160.219 81.3666 160.591 87.1866 162.433 88.0686C164.275 88.9507 163.654 89.0958 163.871 90.0295C164.088 90.9632 165.071 92.3743 166.53 93.0177C167.989 93.661 174.625 109.839 174.625 109.839L180.213 108.533C179.695 107.128 179.355 105.665 179.199 104.176C179.003 101.924 176.458 96.6125 175.62 95.8239C174.782 95.0354 175.113 93.6453 174.679 91.7779C174.244 89.9104 174.546 91.642 173.822 88.5297C173.098 85.4173 164.959 66.7649 164.618 63.8911C164.277 61.0174 160.283 59.3259 160.283 59.3259L157.179 60.0517L156.369 81.8998Z" fill="#1985A1"/>
<path d="M92.4253 197H213.612C213.715 197 213.814 196.959 213.887 196.886C213.959 196.813 214 196.714 214 196.611C214 196.508 213.959 196.409 213.887 196.336C213.814 196.263 213.715 196.222 213.612 196.222H92.4253C92.3224 196.222 92.2236 196.263 92.1508 196.336C92.078 196.409 92.0371 196.508 92.0371 196.611C92.0371 196.714 92.078 196.813 92.1508 196.886C92.2236 196.959 92.3224 197 92.4253 197Z" fill="#CCCCCC"/>
</g>
<defs>
<clipPath id="clip0_789_473">
<rect width="214" height="197" fill="white"/>
</clipPath>
</defs>
</svg>
